<svg viewBox="0 0 481.306 277.306" xmlns="http://www.w3.org/2000/svg">
  <rect fill="none" id="canvas_background" height="279.306" width="483.306" y="-1" x="-1"/>
  <path fill="#92C7D3" d="m426.861,156.837c-1.12,0 -42.648,0 -42.648,0c0.744,-8 1.24,-8.688 1.256,-13.472c0.128,-42.672 -28.36,-79.952 -70.032,-89.136c-23.752,-5.232 -46.424,-1.368 -65.184,8.76c-22.888,-34.064 -60.808,-57.04 -104.272,-59.696c-5.592,-0.768 -11.256,-1.224 -17.056,-1.224c-70.84,0 -128.272,59.264 -128.272,132.32c0,38.072 15.688,72.304 40.648,96.44c22.072,24.488 52.72,40.312 89.008,42.944c0,0 295.432,1.464 296.552,1.464c29.712,0 53.792,-27.208 53.792,-59.208c0,-31.984 -24.088,-59.192 -53.792,-59.192z"/>
</svg>
